<svg width="32" height="32" viewBox="0 0 32 32" fill="none" xmlns="http://www.w3.org/2000/svg">
  <!-- 胶囊外壳 - 渐变背景 -->
  <defs>
    <linearGradient id="capsuleGradient" x1="0%" y1="0%" x2="100%" y2="100%">
      <stop offset="0%" style="stop-color:#6366f1;stop-opacity:1" />
      <stop offset="100%" style="stop-color:#8b5cf6;stop-opacity:1" />
    </linearGradient>
    <linearGradient id="sparkleGradient" x1="0%" y1="0%" x2="100%" y2="100%">
      <stop offset="0%" style="stop-color:#fbbf24;stop-opacity:1" />
      <stop offset="100%" style="stop-color:#f59e0b;stop-opacity:1" />
    </linearGradient>
  </defs>
  
  <!-- 胶囊主体 -->
  <rect x="6" y="10" width="20" height="12" rx="6" ry="6" fill="url(#capsuleGradient)" stroke="#4f46e5" stroke-width="1"/>
  
  <!-- 胶囊分割线 -->
  <line x1="16" y1="10" x2="16" y2="22" stroke="#4f46e5" stroke-width="1" opacity="0.6"/>
  
  <!-- 灵感火花 - 左侧 -->
  <circle cx="11" cy="16" r="1.5" fill="url(#sparkleGradient)"/>
  <path d="M11 13 L11.5 14.5 L13 14 L11.5 15.5 L11 17 L10.5 15.5 L9 16 L10.5 14.5 Z" fill="url(#sparkleGradient)" opacity="0.8"/>
  
  <!-- 灵感火花 - 右侧 -->
  <circle cx="21" cy="16" r="1.5" fill="url(#sparkleGradient)"/>
  <path d="M21 13 L21.5 14.5 L23 14 L21.5 15.5 L21 17 L20.5 15.5 L19 16 L20.5 14.5 Z" fill="url(#sparkleGradient)" opacity="0.8"/>
  
  <!-- 顶部装饰性火花 -->
  <circle cx="16" cy="6" r="1" fill="#fbbf24" opacity="0.7"/>
  <path d="M16 4 L16.3 5 L17 4.7 L16.3 5.3 L16 6 L15.7 5.3 L15 5 L15.7 4.7 Z" fill="#fbbf24" opacity="0.6"/>
  
  <!-- 底部装饰性火花 -->
  <circle cx="16" cy="26" r="1" fill="#fbbf24" opacity="0.7"/>
  <path d="M16 24 L16.3 25 L17 24.7 L16.3 25.3 L16 26 L15.7 25.3 L15 25 L15.7 24.7 Z" fill="#fbbf24" opacity="0.6"/>
</svg>